<?xml version="1.0" standalone="no"?>
<!DOCTYPE svg PUBLIC "-//W3C//DTD SVG 20010904//EN"
 "http://www.w3.org/TR/2001/REC-SVG-20010904/DTD/svg10.dtd">
<svg version="1.0" xmlns="http://www.w3.org/2000/svg"
 width="469.000000pt" height="497.000000pt" viewBox="0 0 469.000000 497.000000"
 preserveAspectRatio="xMidYMid meet">

<g transform="translate(0.000000,497.000000) scale(0.100000,-0.100000)"
fill="#FFFFFF" stroke="none">
<path d="M2030 4940 c-516 -73 -906 -267 -1302 -647 l-119 -114 -63 6 c-57 6
-65 5 -93 -19 -39 -33 -142 -191 -189 -289 -44 -93 -52 -138 -30 -171 23 -36
21 -45 -28 -175 -199 -522 -225 -1010 -81 -1506 37 -125 66 -197 150 -367 81
-163 142 -258 251 -394 244 -306 487 -497 904 -715 118 -61 245 -129 281 -150
80 -46 209 -147 209 -163 0 -7 23 -34 50 -61 28 -28 70 -74 93 -102 23 -29 45
-53 49 -53 5 0 8 12 8 26 0 37 -58 236 -75 254 -7 8 -30 49 -50 90 -47 94
-100 172 -176 260 -32 38 -59 73 -59 77 0 5 -43 53 -95 106 -52 54 -95 102
-95 107 0 6 19 -8 41 -30 46 -45 153 -100 193 -100 30 0 128 -35 171 -62 86
-52 46 2 -144 197 -91 94 -186 193 -211 220 -129 144 -161 197 -61 102 40 -38
68 -57 85 -57 14 0 28 -4 31 -10 3 -5 23 -10 43 -10 47 0 187 -27 213 -40 20
-11 28 3 9 15 -19 12 -11 45 11 45 11 0 30 5 42 12 12 6 38 15 57 19 19 4 53
13 75 19 88 25 173 39 240 39 78 1 148 -13 153 -28 2 -6 14 -11 26 -11 12 0
26 -4 32 -9 15 -14 117 -45 142 -43 13 1 22 -1 20 -6 -2 -4 -10 -19 -17 -35
-18 -35 -7 -45 27 -25 15 9 63 21 107 27 148 21 201 42 278 114 26 24 47 38
47 31 0 -7 -4 -16 -10 -19 -5 -3 -10 -14 -10 -23 0 -20 -170 -212 -354 -399
-120 -123 -153 -169 -91 -129 31 20 180 76 204 76 29 0 119 48 163 88 63 57
29 7 -51 -75 -39 -40 -71 -78 -71 -84 0 -6 -33 -51 -74 -99 -99 -118 -147
-190 -202 -302 -43 -90 -111 -284 -102 -293 2 -2 56 45 118 106 180 174 259
228 610 414 294 156 508 311 695 506 280 291 498 676 595 1053 54 209 63 283
64 521 0 323 -36 534 -143 850 -28 82 -51 155 -51 163 0 8 9 25 20 39 11 14
20 36 20 49 0 29 -95 218 -159 317 -66 100 -97 120 -175 113 l-59 -6 -116 113
c-188 182 -347 292 -595 413 -218 106 -422 172 -656 215 -121 22 -607 35 -720
19z m615 -160 c267 -31 549 -126 804 -270 163 -93 429 -298 430 -332 1 -20
-32 -39 -105 -61 -28 -8 -73 -26 -100 -39 -41 -21 -60 -24 -114 -21 -78 5 -90
-1 -223 -109 -115 -93 -127 -109 -127 -166 0 -35 17 -76 92 -219 52 -99 102
-182 115 -190 21 -14 31 -14 103 1 92 18 140 20 190 6 133 -37 212 -309 181
-620 -23 -222 -86 -472 -153 -605 -75 -147 -296 -355 -378 -355 -25 0 -31 6
-51 58 -12 32 -24 90 -26 133 -5 67 -2 81 21 127 48 94 132 171 205 187 44 10
30 22 -56 47 -53 15 -116 22 -288 28 -121 4 -222 8 -224 9 -2 1 39 23 90 49
94 48 462 277 467 290 1 4 -28 25 -65 48 -38 22 -69 47 -71 55 -2 10 19 30 53
52 30 21 55 42 55 48 0 14 -144 255 -222 371 -59 89 -111 147 -162 184 l-30
20 22 36 c25 40 37 119 47 300 l7 128 -32 31 c-29 29 -35 31 -80 26 -77 -9
-166 -60 -248 -143 -40 -41 -77 -74 -83 -74 -5 0 -32 12 -60 26 -160 81 -385
84 -558 8 -67 -30 -75 -30 -89 0 -27 60 -210 169 -303 182 -40 5 -49 3 -68
-17 -19 -21 -21 -34 -21 -148 0 -152 12 -232 45 -303 l25 -53 -22 -15 c-67
-45 -140 -138 -247 -316 -63 -104 -117 -200 -119 -213 -4 -19 6 -34 48 -73 61
-56 61 -55 -34 -113 -36 -22 -65 -43 -66 -48 0 -18 305 -203 468 -284 51 -25
90 -49 86 -52 -3 -3 -110 -9 -237 -12 -208 -6 -240 -9 -306 -30 -77 -25 -104
-49 -56 -49 56 0 152 -71 210 -154 52 -76 57 -144 21 -260 -25 -81 -28 -86
-54 -86 -34 0 -164 84 -243 158 -56 52 -117 142 -157 235 -25 56 -76 254 -97
377 -21 118 -29 347 -17 455 12 103 50 231 83 279 42 61 75 76 172 76 47 0
109 -5 137 -11 42 -9 55 -8 73 4 24 15 166 271 201 360 29 73 13 97 -136 208
-148 110 -176 123 -240 115 -39 -5 -56 -2 -95 17 -27 14 -75 33 -108 43 -68
20 -85 30 -85 51 0 38 193 203 375 323 204 133 499 240 784 285 105 16 518 19
646 5z m-1739 -763 c7 -20 -34 -217 -51 -244 -21 -31 -62 -50 -76 -36 -7 7 -6
27 6 64 9 30 20 78 25 107 11 65 44 122 71 122 11 0 22 -6 25 -13z m2999 -39
c22 -49 65 -197 65 -224 0 -6 -7 -15 -17 -18 -17 -7 -56 23 -74 56 -15 28 -49
170 -49 206 0 28 3 32 26 32 21 0 29 -9 49 -52z m-157 0 c13 -17 30 -99 43
-212 10 -91 5 -114 -24 -103 -16 6 -85 192 -94 253 -5 35 -2 44 18 58 28 19
43 20 57 4z m-2713 -12 c44 -19 44 -31 4 -167 -32 -107 -56 -146 -83 -136 -18
7 -16 34 10 197 23 138 16 128 69 106z m268 -66 c75 -44 147 -107 147 -128 -1
-16 -56 -106 -71 -115 -20 -12 -193 70 -240 114 -34 32 -34 54 1 137 26 58 54
56 163 -8z m455 30 c38 -23 40 -39 8 -77 -13 -15 -36 -55 -51 -87 -25 -52 -29
-57 -36 -38 -12 32 -22 167 -15 196 8 33 46 35 94 6z m1292 -73 c0 -64 -4 -99
-14 -112 -13 -18 -16 -16 -39 35 -13 30 -36 69 -50 86 -15 18 -27 35 -27 38 0
11 76 45 103 46 l27 0 0 -93z m532 46 c12 -27 22 -66 22 -88 l1 -40 -125 -62
c-69 -34 -128 -63 -133 -63 -16 0 -67 95 -67 126 0 36 34 70 135 135 45 29 70
39 103 39 42 0 44 -1 64 -47z m533 -117 c13 -36 22 -66 19 -66 -9 0 -54 104
-54 124 0 29 9 15 35 -58z m-3499 -9 c-14 -30 -30 -58 -36 -62 -7 -4 -6 5 3
21 8 16 22 47 31 68 9 22 19 37 21 34 3 -3 -6 -30 -19 -61z m1369 -156 c139
-68 215 -120 295 -201 38 -39 72 -70 76 -70 4 0 48 40 98 88 124 120 297 219
414 238 40 6 42 6 42 -20 0 -14 -9 -49 -20 -78 -11 -29 -20 -54 -20 -55 0 -1
27 -20 59 -42 75 -51 108 -92 214 -267 142 -236 144 -241 103 -322 -111 -220
-413 -449 -716 -543 -161 -51 -342 -23 -555 85 -243 123 -426 289 -521 471
l-29 55 30 58 c16 31 54 93 84 137 30 44 78 119 107 166 55 89 109 146 166
175 18 9 34 18 36 19 1 1 -12 32 -29 69 -17 36 -28 74 -25 82 10 26 78 10 191
-45z m-1232 5 c59 -14 142 -30 183 -37 49 -8 78 -17 82 -27 3 -10 -33 -52
-110 -126 -123 -118 -144 -150 -193 -289 -16 -44 -35 -81 -42 -84 -24 -10 -73
49 -118 142 -86 174 -100 379 -31 439 25 22 66 19 229 -18z m3472 -8 c39 -99
28 -244 -30 -374 -32 -72 -101 -180 -120 -188 -19 -7 -28 8 -60 102 -45 129
-79 178 -173 247 -81 59 -160 151 -144 167 4 4 84 23 177 42 215 44 209 43
276 45 l57 1 17 -42z m-3856 -598 c15 -467 45 -745 96 -891 8 -22 71 -125 139
-228 161 -241 277 -364 392 -417 42 -20 115 -45 160 -57 80 -19 84 -21 88 -51
15 -113 52 -302 81 -421 39 -158 41 -175 20 -175 -19 0 -126 65 -229 138 -459
330 -756 767 -870 1282 -74 335 -57 751 44 1074 33 102 50 133 62 112 3 -6 11
-171 17 -366z m4011 349 c0 -7 7 -17 15 -23 18 -14 68 -203 92 -351 24 -152
24 -467 -1 -620 -82 -501 -288 -891 -663 -1256 -118 -115 -210 -188 -347 -273
-98 -61 -132 -71 -123 -34 28 114 68 329 82 439 10 74 19 139 21 146 1 6 29
17 61 23 217 45 334 141 575 472 143 198 142 195 169 284 72 233 102 496 103
896 1 170 4 308 9 308 4 0 7 -5 7 -11z m-1320 -1260 c57 -25 107 -73 131 -124
36 -77 22 -228 -33 -358 -49 -118 -188 -291 -267 -332 -41 -21 -145 -32 -163
-18 -7 6 -29 14 -48 18 -19 3 -54 15 -77 26 -24 10 -50 19 -58 19 -9 0 -35 18
-59 40 -113 104 -148 300 -78 438 44 88 158 188 282 250 58 28 128 56 155 61
66 13 160 4 215 -20z m-1106 -13 c194 -74 338 -217 365 -362 5 -25 5 -47 0
-50 -5 -3 -9 -39 -9 -81 0 -66 -3 -81 -25 -109 -14 -18 -25 -42 -25 -53 0 -13
-6 -21 -16 -21 -9 0 -33 -14 -54 -30 -52 -41 -135 -78 -206 -91 -32 -6 -64
-15 -71 -21 -22 -18 -101 2 -147 38 -98 75 -225 263 -261 386 -23 82 -22 214
3 270 23 52 77 109 130 138 55 30 219 23 316 -14z m-1037 -112 c76 -20 141
-41 145 -47 4 -7 24 -40 45 -75 41 -70 164 -193 209 -210 25 -10 21 -10 -26
-5 -58 6 -189 52 -281 98 -75 39 -269 230 -269 266 0 16 36 10 177 -27z m3023
25 c0 -21 -69 -106 -140 -173 -71 -67 -115 -93 -254 -153 -74 -31 -181 -56
-146 -34 91 60 177 149 216 225 l38 73 115 35 c122 38 171 45 171 27z"/>
<path d="M1890 3173 c-44 -16 -137 -99 -174 -155 -16 -25 -16 -28 0 -59 46
-89 192 -187 292 -196 53 -5 63 -2 137 38 213 114 211 113 246 99 18 -8 66
-36 108 -63 96 -63 129 -77 185 -77 65 0 212 77 288 152 55 54 75 98 45 98 -8
0 -49 37 -93 82 l-79 82 -95 4 -95 4 -105 -48 c-99 -46 -109 -49 -190 -49 -81
0 -90 2 -190 49 -121 57 -200 68 -280 39z m207 -149 c36 -27 45 -67 17 -78
-59 -23 -144 12 -144 59 0 49 73 60 127 19z m620 14 c37 -47 2 -98 -66 -98
-79 0 -91 23 -39 77 34 35 86 45 105 21z"/>
<path d="M2224 2705 c-8 -21 20 -61 61 -88 32 -21 34 -25 37 -87 3 -58 5 -65
24 -68 20 -3 22 3 26 59 4 55 8 66 33 84 72 52 78 60 66 83 -15 29 -21 28 -66
-8 -21 -16 -45 -30 -53 -30 -8 0 -34 16 -58 35 -47 38 -62 43 -70 20z"/>
<path d="M2326 978 c-3 -35 -11 -106 -17 -158 -21 -172 -13 -480 12 -496 5 -3
9 -26 9 -52 0 -59 14 -86 24 -45 15 61 19 507 5 656 -7 82 -16 150 -20 153 -4
2 -10 -24 -13 -58z"/>
</g>
</svg>
